<svg xmlns="http://www.w3.org/2000/svg" width="431.888" height="267.337" viewBox="0 0 431.888 267.337">
  <g id="Group_131326" data-name="Group 131326" transform="translate(-121.112 -157.696)">
    <ellipse id="Ellipse_11" data-name="Ellipse 11" cx="215.944" cy="7.253" rx="215.944" ry="7.253" transform="translate(121.112 410.526)" fill="#6c63ff" opacity="0.1"/>
    <path id="Path_80914" data-name="Path 80914" d="M734.272,465.158a3.143,3.143,0,0,0-1.72-2.473,3.212,3.212,0,0,0-4.255,1.8l-15.343,32.281L709.5,623.868h5.526L717.1,497.045l16.883-29.884a3.281,3.281,0,0,0,.29-2Z" transform="translate(-260.465 -257.207)" fill="#000f4d"/>
    <circle id="Ellipse_14" data-name="Ellipse 14" cx="20.724" cy="20.724" r="20.724" transform="translate(389.282 369.079)" fill="#3f3d56"/>
    <circle id="Ellipse_15" data-name="Ellipse 15" cx="20.724" cy="20.724" r="20.724" transform="translate(389.282 369.079)" opacity="0.77"/>
    <circle id="Ellipse_16" data-name="Ellipse 16" cx="13.125" cy="13.125" r="13.125" transform="translate(396.88 376.677)" fill="#65617d"/>
    <circle id="Ellipse_17" data-name="Ellipse 17" cx="13.125" cy="13.125" r="13.125" transform="translate(396.88 376.677)" opacity="0.1"/>
    <path id="Path_80933" data-name="Path 80933" d="M630,681.7l13.595,30.74a2.639,2.639,0,0,0,4.787.1L664.54,679.63Z" transform="translate(-235.883 -324.367)" fill="#3f3d56"/>
    <path id="Path_80934" data-name="Path 80934" d="M630,681.7l13.595,30.74a2.639,2.639,0,0,0,4.787.1L664.54,679.63Z" transform="translate(-235.883 -324.367)" opacity="0.77"/>
    <circle id="Ellipse_18" data-name="Ellipse 18" cx="20.724" cy="20.724" r="20.724" transform="translate(260.103 369.079)" fill="#3f3d56"/>
    <circle id="Ellipse_19" data-name="Ellipse 19" cx="20.724" cy="20.724" r="20.724" transform="translate(260.103 369.079)" opacity="0.77"/>
    <circle id="Ellipse_20" data-name="Ellipse 20" cx="13.125" cy="13.125" r="13.125" transform="translate(267.702 376.677)" fill="#65617d"/>
    <circle id="Ellipse_21" data-name="Ellipse 21" cx="13.125" cy="13.125" r="13.125" transform="translate(267.702 376.677)" opacity="0.1"/>
    <path id="Path_80935" data-name="Path 80935" d="M443,681.7l13.595,30.74a2.639,2.639,0,0,0,4.787.1L477.54,679.63Z" transform="translate(-178.061 -324.367)" fill="#3f3d56"/>
    <path id="Path_80936" data-name="Path 80936" d="M443,681.7l13.595,30.74a2.639,2.639,0,0,0,4.787.1L477.54,679.63Z" transform="translate(-178.061 -324.367)" opacity="0.77"/>
    <path id="Path_80937" data-name="Path 80937" d="M740.818,467.158a3.143,3.143,0,0,0-1.72-2.473,3.212,3.212,0,0,0-4.255,1.8L722.954,496,719.5,628.631h5.526L727.1,496.282l13.429-27.121a3.281,3.281,0,0,0,.29-2Z" transform="translate(-263.557 -257.825)" fill="#000f4d"/>
    <path id="Path_80938" data-name="Path 80938" d="M368.5,556.73l18.651-11.743,201.366-1.727,5.181,13.47Z" transform="translate(-135.683 -196.287)" fill="#3d6161"/>
    <path id="Path_80939" data-name="Path 80939" d="M368.5,574.2V561.771l228.846-2.211-.221,8.428H372.645V574.2Z" transform="translate(-135.683 -201.327)" fill="#000f4d"/>
    <circle id="Ellipse_22" data-name="Ellipse 22" cx="20.724" cy="20.724" r="20.724" transform="translate(241.107 376.332)" fill="#000f4d"/>
    <circle id="Ellipse_23" data-name="Ellipse 23" cx="13.125" cy="13.125" r="13.125" transform="translate(248.705 383.931)" fill="#6c63ff"/>
    <path id="Path_80940" data-name="Path 80940" d="M415.5,692.2l13.595,30.74a2.639,2.639,0,0,0,4.787.1L450.04,690.13Z" transform="translate(-169.558 -327.614)" fill="#000f4d"/>
    <circle id="Ellipse_24" data-name="Ellipse 24" cx="20.724" cy="20.724" r="20.724" transform="translate(402.061 376.332)" fill="#000f4d"/>
    <circle id="Ellipse_25" data-name="Ellipse 25" cx="13.125" cy="13.125" r="13.125" transform="translate(409.66 383.931)" fill="#6c63ff"/>
    <path id="Path_80941" data-name="Path 80941" d="M648.5,692.2l13.595,30.74a2.639,2.639,0,0,0,4.787.1L683.04,690.13Z" transform="translate(-241.603 -327.614)" fill="#000f4d"/>
    <rect id="Rectangle_16878" data-name="Rectangle 16878" width="86.349" height="47.665" transform="translate(258.722 306.217)" fill="#93af00"/>
    <rect id="Rectangle_16879" data-name="Rectangle 16879" width="26.25" height="5.526" transform="translate(289.117 314.506)" opacity="0.1"/>
    <rect id="Rectangle_16880" data-name="Rectangle 16880" width="19.688" height="4.145" transform="translate(292.398 315.197)" opacity="0.1"/>
    <rect id="Rectangle_16881" data-name="Rectangle 16881" width="86.349" height="47.665" transform="translate(346.452 306.217)" fill="#93af00"/>
    <rect id="Rectangle_16882" data-name="Rectangle 16882" width="26.25" height="5.526" transform="translate(376.847 314.506)" opacity="0.1"/>
    <rect id="Rectangle_16883" data-name="Rectangle 16883" width="19.688" height="4.145" transform="translate(380.129 315.197)" opacity="0.1"/>
    <rect id="Rectangle_16884" data-name="Rectangle 16884" width="86.349" height="47.665" transform="translate(258.722 257.17)" fill="#6c971f"/>
    <rect id="Rectangle_16885" data-name="Rectangle 16885" width="26.25" height="5.526" transform="translate(289.117 265.46)" opacity="0.1"/>
    <rect id="Rectangle_16886" data-name="Rectangle 16886" width="19.688" height="4.145" transform="translate(292.398 266.151)" opacity="0.1"/>
    <rect id="Rectangle_16887" data-name="Rectangle 16887" width="86.349" height="47.665" transform="translate(346.452 257.17)" fill="#6c971f"/>
    <rect id="Rectangle_16888" data-name="Rectangle 16888" width="26.25" height="5.526" transform="translate(376.847 265.46)" opacity="0.1"/>
    <rect id="Rectangle_16889" data-name="Rectangle 16889" width="19.688" height="4.145" transform="translate(380.129 266.151)" opacity="0.1"/>
    <rect id="Rectangle_16890" data-name="Rectangle 16890" width="86.349" height="47.665" transform="translate(258.722 207.433)" fill="#1182ae"/>
    <rect id="Rectangle_16891" data-name="Rectangle 16891" width="26.25" height="5.526" transform="translate(289.117 215.723)" opacity="0.1"/>
    <rect id="Rectangle_16892" data-name="Rectangle 16892" width="19.688" height="4.145" transform="translate(292.398 216.413)" opacity="0.1"/>
    <rect id="Rectangle_16893" data-name="Rectangle 16893" width="86.349" height="47.665" transform="translate(346.452 207.433)" fill="#1182ae"/>
    <rect id="Rectangle_16894" data-name="Rectangle 16894" width="26.25" height="5.526" transform="translate(376.847 215.723)" opacity="0.1"/>
    <rect id="Rectangle_16895" data-name="Rectangle 16895" width="19.688" height="4.145" transform="translate(380.129 216.413)" opacity="0.1"/>
    <rect id="Rectangle_16896" data-name="Rectangle 16896" width="86.349" height="47.665" transform="translate(346.452 157.696)" fill="#1182ae"/>
    <rect id="Rectangle_16897" data-name="Rectangle 16897" width="26.25" height="5.526" transform="translate(376.847 165.986)" opacity="0.1"/>
    <rect id="Rectangle_16898" data-name="Rectangle 16898" width="19.688" height="4.145" transform="translate(380.129 166.676)" opacity="0.1"/>
  </g>
</svg>
