<svg xmlns="http://www.w3.org/2000/svg" width="68.114" height="63.821" viewBox="0 0 68.114 63.821">
  <g id="Icon_ionic-md-analytics" data-name="Icon ionic-md-analytics" transform="translate(1.75 0.625)">
    <g id="Path_71536" data-name="Path 71536" transform="translate(0 7.782)" fill="none">
      <path d="M48.855,13.073l-11.7,17.9a6.373,6.373,0,0,1,1.449,4.065,6.439,6.439,0,1,1-12.879,0,7.056,7.056,0,0,1,.107-1.194l-7.727-4.494a6.4,6.4,0,0,1-4.467,1.8,6.475,6.475,0,0,1-3.166-.832l-8.224,7.7v7.674a5.743,5.743,0,0,0,5.728,5.728H56.636a5.743,5.743,0,0,0,5.728-5.728V17.165L54.5,11.946a6.435,6.435,0,0,1-5.648,1.127Z" stroke="none"/>
      <path d="M 54.50258636474609 11.94609451293945 C 53.41594314575195 12.7912483215332 52.04758834838867 13.30104064941406 50.55848693847656 13.30104064941406 C 49.96821975708008 13.30104064941406 49.39135360717773 13.22055053710938 48.85474395751953 13.07298278808594 L 37.15660858154297 30.9689826965332 C 38.06885528564453 32.08245086669922 38.60545349121094 33.49106216430664 38.60545349121094 35.03381729125977 C 38.60545349121094 38.58887481689453 35.72117614746094 41.47315979003906 32.16611099243164 41.47315979003906 C 28.61106491088867 41.47315979003906 25.72677612304688 38.58887481689453 25.72677612304688 35.03381729125977 C 25.72677612304688 34.63136291503906 25.76702117919922 34.22890472412109 25.83408737182617 33.83985900878906 L 18.10687637329102 29.34572601318359 C 16.95316696166992 30.45920562744141 15.38357543945312 31.14338302612305 13.63958740234375 31.14338302612305 C 12.48586654663086 31.14338302612305 11.41264343261719 30.8348274230957 10.47357559204102 30.31163787841797 L 2.25 38.01201629638672 L 2.25 45.68556213378906 C 2.25 48.83816146850586 4.825733184814453 51.41389465332031 7.97833251953125 51.41389465332031 L 56.6356086730957 51.41389465332031 C 59.7882080078125 51.41389465332031 62.36394500732422 48.83816146850586 62.36394500732422 45.68556213378906 L 62.36394500732422 17.16464996337891 L 54.50258636474609 11.94609451293945 M 54.31785583496094 7.022361755371094 L 66.36394500732422 15.01884078979492 L 66.36394500732422 45.68556213378906 C 66.36394500732422 51.04978179931641 61.99983215332031 55.41389465332031 56.6356086730957 55.41389465332031 L 7.97833251953125 55.41389465332031 C 2.614109039306641 55.41389465332031 -1.75 51.04978179931641 -1.75 45.68556213378906 L -1.75 36.27767181396484 L 9.870330810546875 25.39664077758789 L 12.42036437988281 26.81735992431641 C 12.80866622924805 27.03369522094727 13.21886444091797 27.14338302612305 13.63958740234375 27.14338302612305 C 14.45721054077148 27.14338302612305 15.0096321105957 26.77587127685547 15.32907485961914 26.46755981445312 L 17.50446701049805 24.36803817749023 L 30.24822235107422 31.77979469299316 L 29.77594375610352 34.51939392089844 C 29.74332046508789 34.70864868164062 29.72677612304688 34.88172912597656 29.72677612304688 35.03381729125977 C 29.72677612304688 36.37887191772461 30.82105255126953 37.47315979003906 32.16611099243164 37.47315979003906 C 33.51116561889648 37.47315979003906 34.60545349121094 36.37887191772461 34.60545349121094 35.03381729125977 C 34.60545349121094 34.31718444824219 34.31016540527344 33.80632781982422 34.06245422363281 33.50397491455078 L 32.20376586914062 31.23529434204102 L 47.10267639160156 8.442684173583984 L 49.91535186767578 9.216159820556641 C 50.11728668212891 9.271682739257812 50.33967590332031 9.301040649414062 50.55848693847656 9.301040649414062 C 51.24415588378906 9.301040649414062 51.74632263183594 9.022407531738281 52.04684448242188 8.788673400878906 L 54.31785583496094 7.022361755371094 Z" stroke="none" fill="#fff"/>
    </g>
    <g id="Path_71537" data-name="Path 71537" fill="none">
      <path d="M13.653,26.047a6.441,6.441,0,0,1,6.439,6.439c0,.282-.027.563-.054.832L28.1,37.825a6.382,6.382,0,0,1,4.078-1.449,6.738,6.738,0,0,1,1.4.148L45.3,18.36a6.371,6.371,0,0,1-1.194-3.729,6.439,6.439,0,1,1,12.879,0,7,7,0,0,1-.174,1.516l5.541,3.7V9.1a5.743,5.743,0,0,0-5.728-5.728H7.978A5.743,5.743,0,0,0,2.25,9.1V39.865l5.366-5.138a6.439,6.439,0,0,1,6.037-8.68Z" stroke="none"/>
      <path d="M 2.250003337860107 39.86460494995117 L 7.616125583648682 34.72654724121094 C 7.361225605010986 34.02894973754883 7.213658809661865 33.27770614624023 7.213658809661865 32.4861946105957 C 7.213658809661865 28.93113708496094 10.09794807434082 26.04684829711914 13.65300369262695 26.04684829711914 C 17.20805931091309 26.04684829711914 20.09234809875488 28.93113708496094 20.09234809875488 32.4861946105957 C 20.09234809875488 32.76791381835938 20.06551361083984 33.04963684082031 20.03868103027344 33.31794738769531 L 28.10128211975098 37.82548141479492 C 29.21474838256836 36.91323852539062 30.62335968017578 36.37663650512695 32.17953491210938 36.37663650512695 C 32.66247940063477 36.37663650512695 33.13201522827148 36.43029403686523 33.57472610473633 36.52419281005859 L 45.2996940612793 18.35989379882812 C 44.54843521118164 17.3134937286377 44.10573577880859 16.02562713623047 44.10573577880859 14.63043785095215 C 44.10573577880859 11.07538223266602 46.99002456665039 8.191093444824219 50.54507064819336 8.191093444824219 C 54.10012435913086 8.191093444824219 56.98441314697266 11.07538223266602 56.98441314697266 14.63043785095215 C 56.98441314697266 15.15363788604736 56.91733551025391 15.66341590881348 56.81001281738281 16.14636039733887 L 62.35053634643555 19.8489818572998 L 62.35053634643555 9.103337287902832 C 62.35053634643555 5.950737953186035 59.77480316162109 3.375004291534424 56.6222038269043 3.375004291534424 L 7.978336811065674 3.375004291534424 C 4.825736522674561 3.375004291534424 2.250003337860107 5.950737953186035 2.250003337860107 9.103337287902832 L 2.250003337860107 39.86460494995117 M -1.749996542930603 49.23254776000977 L -1.749996542930603 9.103337287902832 C -1.749996542930603 3.739115476608276 2.61411452293396 -0.6249955892562866 7.978336811065674 -0.6249955892562866 L 56.6222038269043 -0.6249955892562866 C 61.98642730712891 -0.6249955892562866 66.35054016113281 3.739115476608276 66.35054016113281 9.103337287902832 L 66.35054016113281 27.33309364318848 L 52.31140518188477 17.95100402832031 L 52.90526962280273 15.27862644195557 C 52.95778274536133 15.04230403900146 52.98441314697266 14.82421588897705 52.98441314697266 14.63043785095215 C 52.98441314697266 13.28538227081299 51.8901252746582 12.19109344482422 50.54507064819336 12.19109344482422 C 49.20001602172852 12.19109344482422 48.10573577880859 13.28538227081299 48.10573577880859 14.63043785095215 C 48.10573577880859 15.27448177337646 48.34678268432617 15.74542617797852 48.54899215698242 16.0270824432373 L 50.13789367675781 18.24020385742188 L 35.44076919555664 41.00897216796875 L 32.74478149414062 40.43714904785156 C 32.55548095703125 40.39699172973633 32.36531448364258 40.37663650512695 32.17953491210938 40.37663650512695 C 31.59529304504395 40.37663650512695 31.07605934143066 40.559326171875 30.63627052307129 40.91963958740234 L 28.52813720703125 42.64679336547852 L 15.79754829406738 35.52954864501953 L 16.05853652954102 32.91990280151367 C 16.07118034362793 32.79344940185547 16.09234809875488 32.58180618286133 16.09234809875488 32.4861946105957 C 16.09234809875488 31.14113807678223 14.99805927276611 30.04684829711914 13.65300369262695 30.04684829711914 C 12.30794811248779 30.04684829711914 11.21365928649902 31.14113807678223 11.21365928649902 32.4861946105957 C 11.21365928649902 32.77621459960938 11.26583671569824 33.05999374389648 11.37316989898682 33.35373687744141 L 12.27007007598877 35.808349609375 L -1.749996542930603 49.23254776000977 Z" stroke="none" fill="#fff"/>
    </g>
  </g>
</svg>
