<svg xmlns="http://www.w3.org/2000/svg" width="49.8" height="58.215" viewBox="0 0 49.8 58.215">
  <g id="Group_30390" data-name="Group 30390" transform="translate(0 0)">
    <path id="Icon_payment-invoice-sign-alt-o" data-name="Icon payment-invoice-sign-alt-o" d="M59.038,28.743a8.218,8.218,0,0,1,1.592,2.388,6.81,6.81,0,0,1,.568,2.842V71.495a2.723,2.723,0,0,1-.909,2.16,2.948,2.948,0,0,1-2.16.911H14.467a2.941,2.941,0,0,1-2.16-.909A2.717,2.717,0,0,1,11.4,71.5V19.419a2.718,2.718,0,0,1,.909-2.16,2.946,2.946,0,0,1,2.16-.909H43.575a6.768,6.768,0,0,1,2.842.682,8.557,8.557,0,0,1,2.5,1.479l10.12,10.232ZM57.1,70.357v-33.2H43.575a2.941,2.941,0,0,1-2.16-.909,2.852,2.852,0,0,1-.909-2.274V20.556H15.49v49.8H57.105ZM44.6,20.783V32.949h12.28a2.086,2.086,0,0,0-.8-1.25L45.963,21.466a3.725,3.725,0,0,0-1.364-.682Z" transform="translate(-11.398 -16.35)" fill="#fff"/>
    <path id="Icon_metro-inr" data-name="Icon metro-inr" d="M22.431,9.039v1.382a.417.417,0,0,1-.433.433H19.722a5.063,5.063,0,0,1-1.747,3.169,6.868,6.868,0,0,1-3.738,1.49q2.262,2.411,6.217,7.26a.371.371,0,0,1,.054.461.394.394,0,0,1-.393.244H17.474a.4.4,0,0,1-.339-.163q-4.145-4.971-6.745-7.734a.405.405,0,0,1-.122-.3v-1.72a.44.44,0,0,1,.433-.433h1.517a6.113,6.113,0,0,0,2.878-.582,2.647,2.647,0,0,0,1.388-1.693H10.7a.417.417,0,0,1-.433-.433V9.039a.417.417,0,0,1,.433-.433H16.3q-.772-1.531-3.63-1.531H10.7a.44.44,0,0,1-.433-.433V4.84a.417.417,0,0,1,.433-.433H21.971a.417.417,0,0,1,.433.433V6.222a.417.417,0,0,1-.433.433H18.815a4.685,4.685,0,0,1,.867,1.95H22a.417.417,0,0,1,.433.433Z" transform="translate(8.55 21.582)" fill="#fff"/>
  </g>
</svg>
